<svg id="visual" viewBox="0 0 900 450" width="900" height="450" xmlns="http://www.w3.org/2000/svg"
  xmlns:xlink="http://www.w3.org/1999/xlink" version="1.1" preserveAspectRatio="none">
  <rect x="0" y="0" width="900" height="450" fill="#171717"></rect>
  <path
    d="M0 321L129 263L257 326L386 309L514 333L643 263L771 286L900 305L900 451L771 451L643 451L514 451L386 451L257 451L129 451L0 451Z"
    fill="#0e0e0e"></path>
  <path
    d="M0 320L129 342L257 325L386 352L514 354L643 327L771 301L900 353L900 451L771 451L643 451L514 451L386 451L257 451L129 451L0 451Z"
    fill="#432917"></path>
  <path
    d="M0 354L129 381L257 380L386 348L514 339L643 334L771 346L900 350L900 451L771 451L643 451L514 451L386 451L257 451L129 451L0 451Z"
    fill="#7a441d"></path>
  <path
    d="M0 380L129 389L257 396L386 389L514 373L643 387L771 378L900 364L900 451L771 451L643 451L514 451L386 451L257 451L129 451L0 451Z"
    fill="#b56020"></path>
  <path
    d="M0 397L129 425L257 421L386 396L514 404L643 396L771 408L900 396L900 451L771 451L643 451L514 451L386 451L257 451L129 451L0 451Z"
    fill="#f47e20"></path>
</svg>