<svg id="visual" viewBox="0 0 900 450" width="900" height="450" xmlns="http://www.w3.org/2000/svg"
  xmlns:xlink="http://www.w3.org/1999/xlink" version="1.1" preserveAspectRatio="none">
  <path
    d="M0 82L90 82L90 51L180 51L180 105L270 105L270 100L360 100L360 82L450 82L450 51L540 51L540 100L630 100L630 69L720 69L720 109L810 109L810 60L900 60L900 109L900 0L900 0L810 0L810 0L720 0L720 0L630 0L630 0L540 0L540 0L450 0L450 0L360 0L360 0L270 0L270 0L180 0L180 0L90 0L90 0L0 0Z"
    fill="#0e0e0e"></path>
  <path
    d="M0 208L90 208L90 222L180 222L180 271L270 271L270 177L360 177L360 190L450 190L450 208L540 208L540 168L630 168L630 226L720 226L720 217L810 217L810 154L900 154L900 285L900 107L900 58L810 58L810 107L720 107L720 67L630 67L630 98L540 98L540 49L450 49L450 80L360 80L360 98L270 98L270 103L180 103L180 49L90 49L90 80L0 80Z"
    fill="#1e1e1e"></path>
  <path
    d="M0 402L90 402L90 307L180 307L180 366L270 366L270 357L360 357L360 397L450 397L450 312L540 312L540 325L630 325L630 325L720 325L720 343L810 343L810 379L900 379L900 375L900 283L900 152L810 152L810 215L720 215L720 224L630 224L630 166L540 166L540 206L450 206L450 188L360 188L360 175L270 175L270 269L180 269L180 220L90 220L90 206L0 206Z"
    fill="#2e2e2e"></path>
  <path
    d="M0 451L90 451L90 451L180 451L180 451L270 451L270 451L360 451L360 451L450 451L450 451L540 451L540 451L630 451L630 451L720 451L720 451L810 451L810 451L900 451L900 451L900 373L900 377L810 377L810 341L720 341L720 323L630 323L630 323L540 323L540 310L450 310L450 395L360 395L360 355L270 355L270 364L180 364L180 305L90 305L90 400L0 400Z"
    fill="#3e3e3e"></path>
</svg>